<svg width="48" height="48" viewBox="0 0 48 48" fill="none" xmlns="http://www.w3.org/2000/svg">
<path d="M36 34.5879L29.7463 28.3342C31.3708 26.3475 32.1695 23.8123 31.9772 21.2532C31.7849 18.6941 30.6164 16.3068 28.7133 14.5851C26.8102 12.8634 24.3182 11.939 21.7526 12.0031C19.1871 12.0673 16.7444 13.115 14.9297 14.9297C13.115 16.7444 12.0673 19.1871 12.0031 21.7526C11.939 24.3182 12.8634 26.8102 14.5851 28.7133C16.3068 30.6164 18.6941 31.7849 21.2532 31.9772C23.8123 32.1695 26.3475 31.3708 28.3342 29.7463L34.5879 36L36 34.5879ZM22.0186 30.008C20.4385 30.008 18.8938 29.5394 17.58 28.6615C16.2662 27.7837 15.2421 26.5359 14.6375 25.076C14.0328 23.6162 13.8745 22.0098 14.1828 20.46C14.4911 18.9102 15.252 17.4867 16.3693 16.3693C17.4867 15.252 18.9102 14.4911 20.46 14.1828C22.0098 13.8745 23.6162 14.0328 25.076 14.6375C26.5359 15.2421 27.7837 16.2662 28.6615 17.58C29.5394 18.8938 30.008 20.4385 30.008 22.0186C30.0056 24.1368 29.1631 26.1676 27.6653 27.6653C26.1676 29.1631 24.1368 30.0056 22.0186 30.008Z" fill="#001412"/>
</svg>
