<svg width="48" height="48" viewBox="0 0 48 48" fill="none" xmlns="http://www.w3.org/2000/svg">
<path d="M38.5367 11.7118C38.1703 11.2527 37.6214 11 36.9911 11C36.6484 11 36.2854 11.0739 35.9124 11.2199L10.518 21.1499C9.17033 21.6768 8.98883 22.4673 9.0005 22.8917C9.01218 23.3161 9.23717 24.095 10.6118 24.543C10.6201 24.5456 10.6283 24.5482 10.6365 24.5505L15.904 26.0946L18.7527 34.439C19.1411 35.5766 20.0129 36.2833 21.0282 36.2833C21.6684 36.2833 22.2981 36.0085 22.8492 35.4889L26.1073 32.4159L30.833 36.3137C30.8335 36.3142 30.8342 36.3144 30.8346 36.3149L30.8795 36.352C30.8836 36.3552 30.888 36.3588 30.8921 36.362C31.4174 36.7794 31.9907 36.9998 32.5508 37H32.551C33.6453 37 34.5166 36.1703 34.7705 34.8864L38.9313 13.8405C39.0984 12.9957 38.9583 12.2398 38.5367 11.7118ZM17.6662 25.8013L27.8287 20.4831L21.5009 27.3708C21.3972 27.4836 21.3237 27.6217 21.2875 27.772L20.0674 32.8349L17.6662 25.8013ZM21.6583 34.1642C21.6162 34.2039 21.5739 34.2393 21.5315 34.2718L22.6636 29.5752L24.7228 31.2738L21.6583 34.1642ZM37.2085 13.4829L33.0477 34.529C33.0076 34.7304 32.8797 35.1991 32.5508 35.1991C32.3883 35.1991 32.1841 35.1084 31.9752 34.9436L26.6202 30.5268C26.6196 30.5261 26.6186 30.5254 26.6177 30.525L23.4315 27.8967L32.5824 17.9362C32.8753 17.6173 32.9019 17.129 32.6453 16.7787C32.3885 16.4284 31.9232 16.3182 31.5426 16.5175L16.4918 24.3939L11.1527 22.8291L36.5393 12.9022C36.7537 12.8182 36.9034 12.8006 36.9911 12.8006C37.0449 12.8006 37.1405 12.8072 37.176 12.852C37.2227 12.9104 37.2822 13.1094 37.2085 13.4829Z" fill="#001412"/>
</svg>
