<svg width="151" height="40" viewBox="0 0 151 40" fill="none" xmlns="http://www.w3.org/2000/svg">
<path d="M65.5311 20.0696L73.6331 22.2454L72.8405 25.1349L72.6115 25.0752L65.5488 23.1754L72.3146 27.9597L70.5533 30.3941L70.3594 30.2599L61.933 24.3044L66.3513 33.587L63.6061 34.8601L63.3722 34.3678L58.0531 23.1904L52.1123 40L49.2514 39.0128L49.4352 38.4956L54.8902 23.0586L35.015 34.3976L33.5004 31.8041L33.7065 31.6872L50.0692 22.3499L0.447946 29.6755L0 26.7164L50.8039 19.2142L0.0931275 5.58498L0.888274 2.69551L1.11728 2.75768L50.0542 15.9095L40.0021 8.80517L41.7659 6.37076L54.2462 15.1884L47.6235 1.27564L50.366 0L50.6026 0.494838L57.6378 15.2804L60.6346 6.80343L63.4955 7.79062L60.4407 16.4317L66.0242 13.2463L67.5415 15.8399L65.4077 17.0583L74.5615 15.7056L75.0094 18.6696L65.5311 20.0696Z" fill="#001412"/>
<path d="M88.8384 3.09585V17.3418H86.0883V3.09585H81.0483V0.497314H93.9058V3.09585H88.8384Z" fill="#001412"/>
<path d="M99.9196 6.41551C99.3358 6.41551 98.7897 6.51995 98.289 6.72883C97.7858 6.9377 97.3481 7.23113 96.9732 7.60661C96.6008 7.9821 96.3038 8.43714 96.0849 8.9668C95.866 9.49645 95.7554 10.0833 95.7554 10.7248C95.7554 11.3664 95.8635 11.9532 96.0849 12.4829C96.3038 13.0126 96.6008 13.4651 96.9732 13.8431C97.3456 14.2211 97.7832 14.512 98.289 14.7209C98.7922 14.9298 99.3358 15.0342 99.9196 15.0342C100.503 15.0342 101.049 14.9298 101.55 14.7209C102.053 14.512 102.491 14.2186 102.866 13.8431C103.241 13.4676 103.53 13.0126 103.742 12.4829C103.953 11.9532 104.059 11.3664 104.059 10.7248C104.059 10.0833 103.953 9.52133 103.742 8.99167C103.53 8.46202 103.238 8.00447 102.866 7.61905C102.494 7.23362 102.053 6.9377 101.55 6.72883C101.047 6.51995 100.503 6.41551 99.9196 6.41551ZM99.9196 3.81699C100.878 3.81699 101.779 3.98855 102.622 4.3342C103.465 4.67984 104.202 5.15977 104.826 5.77646C105.45 6.39563 105.946 7.12421 106.311 7.96718C106.676 8.81015 106.859 9.72771 106.859 10.7224C106.859 11.717 106.681 12.6371 106.323 13.4776C105.966 14.3205 105.475 15.0516 104.851 15.6683C104.225 16.285 103.492 16.7674 102.647 17.1105C101.804 17.4562 100.893 17.6277 99.9196 17.6277C98.9458 17.6277 98.035 17.4562 97.1921 17.1105C96.3492 16.7649 95.612 16.285 94.988 15.6683C94.3615 15.0516 93.8732 14.3205 93.5159 13.4776C93.1586 12.6346 92.98 11.717 92.98 10.7224C92.98 9.72771 93.1636 8.80517 93.5284 7.95722C93.8933 7.10928 94.3891 6.37821 95.0131 5.7665C95.6371 5.15727 96.3717 4.67984 97.2172 4.3342C98.0576 3.98855 98.9585 3.81699 99.9171 3.81699H99.9196Z" fill="#001412"/>
<path d="M116.571 17.3394V13.2737H108.001V4.1055H110.754V10.6752H116.574V4.1055H119.349V17.3419H116.571V17.3394Z" fill="#001412"/>
<path d="M133.397 17.3394H129.867L124.364 11.4684V17.3394H121.611V4.1055H124.364V9.56615L129.356 4.1055H132.838L126.993 10.4315L133.397 17.3394Z" fill="#001412"/>
<path d="M139.579 6.41551C138.996 6.41551 138.455 6.51996 137.962 6.72883C137.466 6.93771 137.033 7.23114 136.658 7.60662C136.286 7.9821 135.994 8.43715 135.78 8.9668C135.568 9.49646 135.463 10.0833 135.463 10.7249C135.463 11.3664 135.568 11.9533 135.78 12.4829C135.991 13.0126 136.283 13.4651 136.658 13.8431C137.03 14.2186 137.466 14.512 137.962 14.7209C138.457 14.9298 138.996 15.0342 139.579 15.0342C140.163 15.0342 140.709 14.9298 141.21 14.7209C141.71 14.512 142.146 14.2186 142.513 13.8431C142.878 13.4676 143.165 13.0126 143.379 12.4829C143.59 11.9533 143.696 11.3664 143.696 10.7249C143.696 10.0833 143.59 9.52133 143.379 8.99168C143.167 8.46203 142.876 8.00448 142.501 7.61905C142.128 7.23362 141.693 6.93771 141.197 6.72883C140.702 6.51996 140.163 6.41551 139.579 6.41551ZM138.971 3.81699C140.042 3.81699 140.976 4.05819 141.769 4.53811C142.561 5.01803 143.198 5.66207 143.668 6.46276V4.10295H146.444V17.3368H143.668V15.0267C143.198 15.8125 142.564 16.4416 141.769 16.9141C140.973 17.3866 140.04 17.6228 138.971 17.6228C138.077 17.6228 137.249 17.4537 136.487 17.1155C135.725 16.7773 135.063 16.3024 134.504 15.6832C133.946 15.0665 133.503 14.3355 133.176 13.4925C132.851 12.6495 132.69 11.7245 132.69 10.7124C132.69 9.70037 132.854 8.77286 133.176 7.91994C133.5 7.06951 133.948 6.34093 134.514 5.72922C135.083 5.11999 135.747 4.64752 136.51 4.30934C137.272 3.97613 138.092 3.80704 138.968 3.80704L138.971 3.81699Z" fill="#001412"/>
<path d="M88.2545 20.8032C89.0974 20.8032 89.8976 20.935 90.6524 21.2011C91.4073 21.4647 92.0842 21.8426 92.6855 22.3325C93.2869 22.8224 93.7876 23.4117 94.1952 24.1005C94.6003 24.7918 94.8697 25.5602 94.998 26.4106H92.1521C91.9256 25.4806 91.4602 24.747 90.7633 24.2099C90.0638 23.6728 89.2384 23.4042 88.2798 23.4042C87.6784 23.4042 87.1274 23.5112 86.6241 23.73C86.1209 23.9463 85.6857 24.2447 85.3208 24.6202C84.956 24.9982 84.669 25.4507 84.4552 25.9804C84.2438 26.5101 84.1382 27.0869 84.1382 27.7136C84.1382 28.3402 84.2438 28.942 84.4552 29.4716C84.6665 30.0013 84.9585 30.4538 85.3334 30.8318C85.7058 31.2073 86.1434 31.5007 86.6492 31.7096C87.1524 31.9185 87.6885 32.0229 88.2572 32.0229C89.2309 32.0229 90.0713 31.7494 90.7758 31.2048C91.4828 30.6602 91.9407 29.9292 92.1521 29.0141H95.0004C94.8696 29.8645 94.6028 30.6329 94.1977 31.3242C93.7926 32.0155 93.2893 32.6023 92.688 33.0922C92.0866 33.582 91.4098 33.96 90.6549 34.2236C89.9001 34.4872 89.1101 34.6215 88.2798 34.6215C87.306 34.6215 86.3952 34.4449 85.5523 34.0918C84.7094 33.7387 83.972 33.2588 83.348 32.6495C82.7214 32.0403 82.2359 31.3117 81.8886 30.4588C81.5389 29.6109 81.3628 28.6958 81.3628 27.7186C81.3628 26.7413 81.5364 25.8038 81.8862 24.9634C82.2359 24.1204 82.7164 23.3943 83.3354 22.7851C83.9519 22.1758 84.6816 21.6959 85.527 21.3428C86.3699 20.9897 87.2807 20.8132 88.2545 20.8132V20.8032Z" fill="#001412"/>
<path d="M107.831 34.3255H104.544L101.331 29.6581L98.1885 34.3255H94.8772L99.6756 27.5171L95.1465 21.0916H98.435L101.404 25.4234L104.278 21.0916H107.589L103.035 27.5644L107.831 34.3255Z" fill="#001412"/>
<path d="M114.674 23.3993C114.09 23.3993 113.545 23.5037 113.044 23.7126C112.541 23.9215 112.103 24.2149 111.728 24.5904C111.353 24.9658 111.059 25.4209 110.84 25.9505C110.621 26.4802 110.51 27.067 110.51 27.7086C110.51 28.3501 110.618 28.937 110.84 29.4666C111.059 29.9963 111.355 30.4489 111.728 30.8268C112.1 31.2048 112.538 31.4957 113.044 31.7046C113.547 31.9135 114.09 32.0179 114.674 32.0179C115.258 32.0179 115.804 31.9135 116.305 31.7046C116.808 31.4957 117.246 31.2023 117.621 30.8268C117.996 30.4514 118.285 29.9963 118.496 29.4666C118.708 28.937 118.813 28.3501 118.813 27.7086C118.813 27.067 118.708 26.5051 118.496 25.9754C118.285 25.4458 117.993 24.9882 117.621 24.6028C117.248 24.2174 116.808 23.9215 116.305 23.7126C115.802 23.5037 115.258 23.3993 114.674 23.3993ZM114.674 20.8032C115.633 20.8032 116.534 20.9748 117.377 21.3204C118.22 21.6661 118.957 22.146 119.581 22.7627C120.205 23.3819 120.701 24.1104 121.065 24.9534C121.43 25.7964 121.614 26.7139 121.614 27.7086C121.614 28.7033 121.435 29.6233 121.078 30.4638C120.721 31.3068 120.23 32.0378 119.606 32.6545C118.98 33.2712 118.247 33.7536 117.402 34.0968C116.559 34.4424 115.648 34.614 114.674 34.614C113.7 34.614 112.79 34.4424 111.947 34.0968C111.104 33.7511 110.367 33.2712 109.743 32.6545C109.116 32.0378 108.628 31.3068 108.271 30.4638C107.913 29.6208 107.735 28.7033 107.735 27.7086C107.735 26.7139 107.918 25.7914 108.283 24.9435C108.648 24.093 109.144 23.3644 109.768 22.7527C110.392 22.1435 111.127 21.6661 111.972 21.3204C112.812 20.9748 113.713 20.8032 114.672 20.8032H114.674Z" fill="#001412"/>
<path d="M127.089 31.727H132.69V23.6902H128.405L127.089 31.727ZM138.12 31.727V37.767H135.345V34.3255H124.193V37.767H121.44V31.727H124.314L126.043 21.0916H135.44V31.727H138.117H138.12Z" fill="#001412"/>
<path d="M139.436 39.8583L142.747 32.6421L137.438 21.0916H140.385L144.209 29.6084L148.056 21.0916H151L142.382 39.8608H139.436V39.8583Z" fill="#001412"/>
</svg>
