<svg width="129" height="40" viewBox="0 0 129 40" fill="none" xmlns="http://www.w3.org/2000/svg">
<path fill-rule="evenodd" clip-rule="evenodd" d="M3.38261 12.1676L10.0348 16.7021L14.4695 13.6104L16.4652 12.1676L9.81303 7.633L3.38261 12.1676ZM20.0131 12.1676L26.6652 16.7021L33.3174 12.1676L26.6652 7.633L20.0131 12.1676ZM19.3479 21.2367L22.6739 23.504L25.5565 25.5651V18.351L19.3479 14.0226V21.2367ZM2.71739 21.2367L8.9261 25.5651V18.351L2.71739 14.0226V21.2367ZM15.8 15.0532L10.9218 18.351V25.5651L17.1305 21.2367V14.0226L15.8 15.0532ZM33.7609 14.0226L27.5522 18.351V25.5651L33.7609 21.2367V14.0226ZM24.8913 27.6263L21.3435 25.1529L18.2391 23.0918L11.587 27.6263L18.2391 32.1609L24.8913 27.6263ZM18.2391 10.9309L26 5.57184C26 5.57184 26 5.57184 26.2218 5.57184C26.4435 5.57184 26.4435 5.57184 26.6652 5.57184C26.887 5.57184 26.887 5.57184 27.1087 5.57184C27.1087 5.57184 27.1087 5.57184 27.3304 5.57184L35.5348 11.3431L35.7565 11.5492C35.7565 11.7553 35.9783 11.7553 35.9783 11.9614C35.9783 11.9614 35.9783 11.9614 35.9783 12.1676V21.855V22.0612C35.9783 22.2673 35.7565 22.2673 35.7565 22.4734C35.7565 22.4734 35.7565 22.4734 35.5348 22.6795L27.1087 28.4507L18.9043 34.222C18.9043 34.222 18.6826 34.222 18.6826 34.4281C18.4609 34.4281 18.2391 34.4281 18.0174 34.4281C18.0174 34.4281 17.7957 34.4281 17.7957 34.222L9.36957 28.4507L0.943478 22.4734C0.943478 22.4734 0.943478 22.4734 0.721739 22.2673C0.721739 22.0612 0.5 22.0612 0.5 21.855C0.5 21.855 0.5 22.0612 0.5 21.855V12.1676C0.5 12.1676 0.5 12.1676 0.5 11.9614C0.5 11.7553 0.5 11.7553 0.721739 11.5492L0.943478 11.3431L9.36957 5.57184C9.36957 5.57184 9.36957 5.57184 9.5913 5.57184C9.81303 5.57184 9.81303 5.57184 10.0348 5.57184C10.0348 5.57184 10.0348 5.57184 10.2565 5.57184C10.4783 5.57184 10.4783 5.57184 10.7 5.77795L18.2391 10.9309Z" fill="white"/>
<path d="M48.142 30.192H44.978V10.648H53.406C55.1607 10.648 56.542 11.18 57.55 12.244C58.558 13.2893 59.062 14.7173 59.062 16.528C59.062 17.928 58.7354 19.0947 58.082 20.028C57.4474 20.9427 56.5047 21.5867 55.254 21.96L59.482 30.192H55.954L52.034 22.296H48.142V30.192ZM53.182 19.636C53.9847 19.636 54.61 19.4307 55.058 19.02C55.506 18.5907 55.73 17.984 55.73 17.2V15.856C55.73 15.072 55.506 14.4747 55.058 14.064C54.61 13.6347 53.9847 13.42 53.182 13.42H48.142V19.636H53.182Z" fill="white"/>
<path d="M73.4962 30.192C72.6936 30.192 72.0776 29.968 71.6482 29.52C71.2189 29.0533 70.9576 28.4653 70.8642 27.756H70.7242C70.4442 28.6707 69.9309 29.3613 69.1842 29.828C68.4376 30.2947 67.5322 30.528 66.4682 30.528C64.9562 30.528 63.7896 30.136 62.9682 29.352C62.1656 28.568 61.7642 27.5133 61.7642 26.188C61.7642 24.732 62.2869 23.64 63.3322 22.912C64.3962 22.184 65.9456 21.82 67.9802 21.82H70.6122V20.588C70.6122 19.692 70.3696 19.0013 69.8842 18.516C69.3989 18.0307 68.6429 17.788 67.6162 17.788C66.7576 17.788 66.0576 17.9747 65.5162 18.348C64.9749 18.7213 64.5176 19.1973 64.1442 19.776L62.3242 18.124C62.8096 17.3027 63.4909 16.6307 64.3682 16.108C65.2456 15.5667 66.3936 15.296 67.8122 15.296C69.6976 15.296 71.1442 15.7347 72.1522 16.612C73.1602 17.4893 73.6642 18.7493 73.6642 20.392V27.7H75.2042V30.192H73.4962ZM67.3362 28.204C68.2882 28.204 69.0722 27.9987 69.6882 27.588C70.3042 27.1587 70.6122 26.5893 70.6122 25.88V23.78H68.0362C65.9269 23.78 64.8722 24.4333 64.8722 25.74V26.244C64.8722 26.8973 65.0869 27.392 65.5162 27.728C65.9642 28.0453 66.5709 28.204 67.3362 28.204Z" fill="white"/>
<path d="M81.3034 30.192C80.2581 30.192 79.4741 29.9307 78.9514 29.408C78.4474 28.8667 78.1954 28.12 78.1954 27.168V9.47198H81.2474V27.7H83.2634V30.192H81.3034Z" fill="white"/>
<path d="M96.8478 30.192C96.0451 30.192 95.4291 29.968 94.9998 29.52C94.5705 29.0533 94.3091 28.4653 94.2158 27.756H94.0758C93.7958 28.6707 93.2825 29.3613 92.5358 29.828C91.7891 30.2947 90.8838 30.528 89.8198 30.528C88.3078 30.528 87.1411 30.136 86.3198 29.352C85.5171 28.568 85.1158 27.5133 85.1158 26.188C85.1158 24.732 85.6385 23.64 86.6838 22.912C87.7478 22.184 89.2971 21.82 91.3318 21.82H93.9638V20.588C93.9638 19.692 93.7211 19.0013 93.2358 18.516C92.7505 18.0307 91.9945 17.788 90.9678 17.788C90.1091 17.788 89.4091 17.9747 88.8678 18.348C88.3265 18.7213 87.8691 19.1973 87.4958 19.776L85.6758 18.124C86.1611 17.3027 86.8425 16.6307 87.7198 16.108C88.5971 15.5667 89.7451 15.296 91.1638 15.296C93.0491 15.296 94.4958 15.7347 95.5038 16.612C96.5118 17.4893 97.0158 18.7493 97.0158 20.392V27.7H98.5558V30.192H96.8478ZM90.6878 28.204C91.6398 28.204 92.4238 27.9987 93.0398 27.588C93.6558 27.1587 93.9638 26.5893 93.9638 25.88V23.78H91.3878C89.2785 23.78 88.2238 24.4333 88.2238 25.74V26.244C88.2238 26.8973 88.4385 27.392 88.8678 27.728C89.3158 28.0453 89.9225 28.204 90.6878 28.204Z" fill="white"/>
<path d="M101.547 9.47198H104.599V18.04H104.739C105.056 17.1627 105.57 16.4907 106.279 16.024C107.007 15.5387 107.856 15.296 108.827 15.296C110.675 15.296 112.103 15.968 113.111 17.312C114.119 18.6373 114.623 20.504 114.623 22.912C114.623 25.32 114.119 27.196 113.111 28.54C112.103 29.8653 110.675 30.528 108.827 30.528C107.856 30.528 107.007 30.2853 106.279 29.8C105.57 29.3147 105.056 28.6427 104.739 27.784H104.599V30.192H101.547V9.47198ZM107.903 27.896C108.967 27.896 109.816 27.56 110.451 26.888C111.086 26.1973 111.403 25.292 111.403 24.172V21.652C111.403 20.532 111.086 19.636 110.451 18.964C109.816 18.2733 108.967 17.928 107.903 17.928C106.97 17.928 106.186 18.1613 105.551 18.628C104.916 19.076 104.599 19.6733 104.599 20.42V25.404C104.599 26.1507 104.916 26.7573 105.551 27.224C106.186 27.672 106.97 27.896 107.903 27.896Z" fill="white"/>
<path d="M122.737 30.528C121.356 30.528 120.199 30.2853 119.265 29.8C118.332 29.3147 117.52 28.6427 116.829 27.784L118.789 25.992C119.331 26.6453 119.928 27.1587 120.581 27.532C121.253 27.8867 122.028 28.064 122.905 28.064C123.801 28.064 124.464 27.896 124.893 27.56C125.341 27.2053 125.565 26.72 125.565 26.104C125.565 25.6373 125.407 25.2453 125.089 24.928C124.791 24.592 124.259 24.3773 123.493 24.284L122.149 24.116C120.656 23.9293 119.48 23.5 118.621 22.828C117.781 22.1373 117.361 21.12 117.361 19.776C117.361 19.0667 117.492 18.4413 117.753 17.9C118.015 17.34 118.379 16.8733 118.845 16.5C119.331 16.108 119.9 15.8093 120.553 15.604C121.225 15.3987 121.963 15.296 122.765 15.296C124.072 15.296 125.136 15.5013 125.957 15.912C126.797 16.3227 127.544 16.892 128.197 17.62L126.321 19.412C125.948 18.964 125.453 18.5813 124.837 18.264C124.24 17.928 123.549 17.76 122.765 17.76C121.925 17.76 121.3 17.928 120.889 18.264C120.497 18.6 120.301 19.0387 120.301 19.58C120.301 20.14 120.479 20.56 120.833 20.84C121.188 21.12 121.757 21.3253 122.541 21.456L123.885 21.624C125.491 21.8667 126.657 22.3427 127.385 23.052C128.132 23.7427 128.505 24.676 128.505 25.852C128.505 26.5613 128.365 27.2053 128.085 27.784C127.824 28.344 127.441 28.8293 126.937 29.24C126.433 29.6507 125.827 29.968 125.117 30.192C124.408 30.416 123.615 30.528 122.737 30.528Z" fill="white"/>
</svg>
